<svg width="1933" height="971" xmlns="http://www.w3.org/2000/svg" xmlns:xlink="http://www.w3.org/1999/xlink" xml:space="preserve" overflow="hidden"><g transform="translate(-568 -968)"><path d="M2490.86 1133 1817 1133 1817 1746.86 2490.86 1746.86 2490.86 1133Z" fill="#EFF5CC" fill-rule="evenodd"/><path d="M2491.91 1130.49 2488.61 1130.49 2488.61 1132.33 2488.61 1132.51 2488.61 1746.9 1816.79 1746.9 1816.79 1746.72 1817.89 1746.72 2488.61 1746.72 2488.61 1744.51 1817.89 1744.51 1817.89 1359.26 1833.83 1327.34 1837.68 1319.63 1824.49 1319.63 1824.49 1143.52 2019.11 1143.52 2019.11 1157.83 2046.94 1143.52 2059.79 1136.91 2053.37 1133.62 2488.61 1133.62 2488.61 1132.51 2051.22 1132.51 2050.86 1132.33 2488.61 1132.33 2488.61 1130.49 2047.29 1130.49 2046.94 1130.31 2019.11 1116 2019.11 1130.31 1812.39 1130.31 1812.39 1136.91 1810.19 1136.91 1810.19 1319.63 1797 1319.63 1814.59 1356.82 1814.59 1744.61 1814.59 1746.9 1814.59 1747.82 2491.91 1747.82 2491.91 1746.9 2490.81 1746.9 2490.81 1746.72 2491.91 1746.72 2491.91 1744.61 2491.91 1744.51 2491.91 1133.7 2490.81 1133.7 2490.81 1133.62 2491.91 1133.62 2491.91 1132.51 2490.81 1132.51 2490.81 1132.33 2491.91 1132.33 2491.91 1130.49Z" fill-rule="evenodd"/><text font-family="Times New Roman,Times New Roman_MSFontService,sans-serif" font-weight="700" font-size="92" transform="matrix(1 0 0 1 1617.17 1104)">(0,0)</text><path d="M1718.87 1321.71C1722.38 1321.71 1725.09 1322.68 1727.01 1324.61 1728.92 1326.54 1729.88 1328.98 1729.88 1331.92 1729.88 1333.71 1729.68 1335.57 1729.29 1337.5L1725.8 1353.88C1725.48 1355.78 1725.21 1357.62 1724.99 1359.42 1724.78 1361.21 1724.67 1362.8 1724.67 1364.2 1724.67 1365.56 1724.76 1366.67 1724.94 1367.53 1725.12 1368.38 1725.35 1368.81 1725.64 1368.81 1726.64 1368.81 1727.94 1368.35 1729.53 1367.42 1731.12 1366.49 1732.84 1365.2 1734.69 1363.55 1736.53 1361.9 1738.38 1359.97 1740.22 1357.75 1742.06 1355.53 1743.73 1353.13 1745.21 1350.55 1746.7 1347.97 1747.9 1345.24 1748.81 1342.36 1749.73 1339.48 1750.18 1336.57 1750.18 1333.63 1750.18 1332.2 1749.91 1331.09 1749.35 1330.3 1748.8 1329.52 1747.93 1329.12 1746.75 1329.12 1745.42 1329.12 1744.19 1329.61 1743.07 1330.6 1741.94 1331.58 1740.78 1332.9 1739.6 1334.55L1735.84 1331.54C1738.1 1328.42 1740.61 1326.01 1743.39 1324.29 1746.16 1322.57 1749.25 1321.71 1752.65 1321.71 1756.02 1321.71 1758.4 1322.58 1759.8 1324.32 1761.19 1326.05 1761.89 1328.37 1761.89 1331.27 1761.89 1332.95 1761.57 1334.9 1760.92 1337.1 1760.28 1339.3 1759.35 1341.62 1758.13 1344.05 1756.91 1346.49 1755.48 1349 1753.83 1351.57 1752.19 1354.15 1750.36 1356.65 1748.36 1359.07 1746.35 1361.48 1744.21 1363.77 1741.94 1365.91 1739.66 1368.06 1737.3 1369.93 1734.85 1371.53 1732.4 1373.12 1729.91 1374.38 1727.38 1375.31 1724.86 1376.24 1722.32 1376.71 1719.78 1376.71 1717.88 1376.71 1716.33 1376.45 1715.11 1375.93 1713.89 1375.41 1713.01 1374.68 1712.45 1373.73 1711.9 1372.78 1711.53 1371.67 1711.35 1370.4 1711.17 1369.13 1711.08 1367.74 1711.08 1366.24 1711.08 1364.16 1711.21 1361.97 1711.46 1359.66 1711.71 1357.35 1712.03 1355.03 1712.42 1352.7L1715.7 1337.5C1715.92 1336.57 1716.09 1335.72 1716.24 1334.95 1716.38 1334.18 1716.45 1333.56 1716.45 1333.1 1716.45 1332.02 1716.23 1331.17 1715.78 1330.55 1715.33 1329.92 1714.41 1329.61 1713.01 1329.61 1710.79 1329.61 1707.63 1331.49 1703.51 1335.25L1700.18 1331.49C1701.86 1329.37 1704.38 1327.22 1707.72 1325.01 1711.07 1322.81 1714.79 1321.71 1718.87 1321.71Z" fill-rule="evenodd"/><text fill="#000000" fill-opacity="0" font-family="Arial,Arial_MSFontService,sans-serif" font-size="55" x="1700.18" y="1369.84">ğ’—</text><path d="M2037.67 1015.45C2041.43 1015.45 2044.19 1016.4 2045.97 1018.3 2047.74 1020.2 2048.63 1022.95 2048.63 1026.57 2048.63 1029.11 2048.11 1032.42 2047.07 1036.51L2044.7 1045.53C2043.24 1051.15 2042.5 1055.25 2042.5 1057.83 2042.5 1061.02 2043.76 1062.61 2046.26 1062.61 2047.41 1062.61 2048.64 1062.18 2049.97 1061.32 2051.29 1060.46 2052.77 1059.14 2054.4 1057.37 2056.03 1055.6 2057.36 1053.64 2058.4 1051.49 2059.44 1049.34 2060.28 1046.8 2060.93 1043.86L2066.94 1016.31 2082.3 1016.31 2073.55 1053.53C2073.12 1055.36 2072.9 1057.17 2072.9 1058.96 2072.9 1060.14 2073.1 1061.05 2073.49 1061.7 2073.89 1062.34 2074.57 1062.66 2075.53 1062.66 2076.64 1062.66 2077.84 1062.16 2079.13 1061.16 2080.42 1060.16 2081.93 1058.67 2083.65 1056.7L2087.51 1060.57C2083.75 1064.33 2080.51 1066.91 2077.79 1068.33 2075.07 1069.74 2072.2 1070.45 2069.2 1070.45 2066.19 1070.45 2063.81 1069.62 2062.05 1067.95 2060.3 1066.29 2059.42 1064.09 2059.42 1061.37 2059.42 1060.48 2059.53 1059.62 2059.74 1058.8L2059.21 1058.37C2055.88 1062.48 2052.68 1065.53 2049.62 1067.5 2046.56 1069.47 2043.02 1070.45 2039.01 1070.45 2035.36 1070.45 2032.5 1069.41 2030.44 1067.34 2028.39 1065.26 2027.36 1062.43 2027.36 1058.85 2027.36 1057.7 2027.47 1056.27 2027.71 1054.55 2027.94 1052.83 2028.22 1051.31 2028.54 1049.99L2032.78 1033.23C2033.39 1030.83 2033.69 1028.74 2033.69 1026.94 2033.69 1025.55 2033.46 1024.58 2033 1024.04 2032.53 1023.51 2031.87 1023.24 2031.01 1023.24 2029.97 1023.24 2028.82 1023.73 2027.54 1024.72 2026.27 1025.7 2024.74 1027.2 2022.95 1029.2L2019.08 1025.33C2022.77 1021.65 2025.98 1019.08 2028.7 1017.63 2031.42 1016.18 2034.41 1015.45 2037.67 1015.45Z" fill-rule="evenodd"/><text fill="#000000" fill-opacity="0" font-family="Arial,Arial_MSFontService,sans-serif" font-size="55" x="2019.08" y="1063.58">ğ’–</text><path d="M2154.5 1130.5 2154.5 1749.86" stroke="#000000" stroke-width="3.4375" stroke-miterlimit="8" fill="none" fill-rule="evenodd"/><path d="M0 0 675.492 0.000360892" stroke="#000000" stroke-width="3.4375" stroke-miterlimit="8" fill="none" fill-rule="evenodd" transform="matrix(-1 0 0 1 2491.99 1449.5)"/><path d="M1427.86 1126 753 1126 753 1739.86 1427.86 1739.86 1427.86 1126Z" fill="#E9E9E9" fill-rule="evenodd"/><path d="M1428.95 1124.68 1425.65 1124.68 1425.65 1126.52 1425.65 1126.7 1425.65 1740.68 1088.88 1740.68 1088.88 1740.5 1425.65 1740.5 1425.65 1738.3 1088.88 1738.3 1088.88 1653.83 1093.28 1662.4 1109.87 1628.3 1113.09 1621.7 1099.88 1621.7 1099.88 1444.6 1294.68 1444.6 1294.68 1458.9 1322.54 1444.6 1324.68 1443.5 1417.95 1443.5 1419.05 1442.4 1419.05 1441.3 1417.95 1440.2 1331.12 1440.2 1335.41 1438 1322.54 1431.4 1294.68 1417.1 1294.68 1431.4 1088.88 1431.4 1088.88 1127.8 1425.65 1127.8 1425.65 1126.7 1088.88 1126.7 1088.88 1126.52 1425.65 1126.52 1425.65 1124.68 1088.88 1124.68 1088.88 1121.2 1088.88 1120.1 1087.78 1119 1086.68 1119 1085.57 1120.1 1085.57 1124.68 751 1124.68 751 1126.52 1085.57 1126.52 1085.57 1126.7 754.302 1126.7 754.302 1127.8 1085.57 1127.8 1085.57 1438 1085.57 1440.2 757.604 1440.2 756.503 1440.2 755.402 1441.3 755.402 1442.4 756.503 1443.5 1085.57 1443.5 1085.57 1621.7 1072.37 1621.7 1085.57 1647.41 1085.57 1738.3 1085.57 1740.5 1085.57 1740.68 753.201 1740.68 753.201 1740.5 754.302 1740.5 1085.57 1740.5 1085.57 1738.3 754.302 1738.3 754.302 1127.89 751 1127.89 751 1738.39 751 1740.68 751 1741.6 1085.57 1741.6 1085.57 1744.9 1086.68 1746 1087.78 1746 1088.88 1744.9 1088.88 1741.6 1428.95 1741.6 1428.95 1740.68 1427.85 1740.68 1427.85 1740.5 1428.95 1740.5 1428.95 1738.39 1428.95 1738.3 1428.95 1127.89 1427.85 1127.89 1427.85 1127.8 1428.95 1127.8 1428.95 1126.7 1427.85 1126.7 1427.85 1126.52 1428.95 1126.52 1428.95 1124.68Z" fill-rule="evenodd"/><rect x="753.5" y="1126.5" width="334" height="316" stroke="#000000" stroke-width="3.29964" stroke-linejoin="round" stroke-miterlimit="10" fill="#E9E9E9"/><text font-family="Times New Roman,Times New Roman_MSFontService,sans-serif" font-weight="700" font-size="92" transform="matrix(1 0 0 1 881.803 1408)">(0,0)</text><text font-family="Times New Roman,Times New Roman_MSFontService,sans-serif" font-weight="400" font-size="83" transform="matrix(1 0 0 1 690.288 1870)">Image (</text><text font-family="Times New Roman,Times New Roman_MSFontService,sans-serif" font-weight="400" font-size="83" transform="matrix(1 0 0 1 944.663 1870)">film</text><text font-family="Times New Roman,Times New Roman_MSFontService,sans-serif" font-weight="400" font-size="83" transform="matrix(1 0 0 1 1082.16 1870)">)</text><text font-family="Times New Roman,Times New Roman_MSFontService,sans-serif" font-weight="400" font-size="83" transform="matrix(1 0 0 1 1130.29 1870)">Coordinate</text><text font-family="Times New Roman,Times New Roman_MSFontService,sans-serif" font-weight="400" font-size="83" transform="matrix(1 0 0 1 1879.82 1870)">P</text><text font-family="Times New Roman,Times New Roman_MSFontService,sans-serif" font-weight="400" font-size="83" transform="matrix(1 0 0 1 1925.65 1870)">ixel </text><text font-family="Times New Roman,Times New Roman_MSFontService,sans-serif" font-weight="400" font-size="83" transform="matrix(1 0 0 1 2070.03 1870)">Coordinate</text><path d="M1987.11 1529.88C1990.7 1529.88 1994.01 1530.28 1997.04 1531.09L1995.05 1540.25 1990.8 1540.25C1990.74 1538.2 1990.57 1536.71 1990.29 1535.79 1990.01 1534.87 1989.55 1534.19 1988.91 1533.73 1988.28 1533.27 1987.38 1533.04 1986.22 1533.04 1983.49 1533.04 1981.04 1534.13 1978.86 1536.3 1976.69 1538.47 1974.91 1541.56 1973.53 1545.54 1972.15 1549.53 1971.47 1553.36 1971.47 1557.03 1971.47 1559.79 1972.01 1561.83 1973.09 1563.17 1974.17 1564.51 1975.79 1565.18 1977.95 1565.18 1980.41 1565.18 1982.54 1564.71 1984.33 1563.78 1986.13 1562.85 1988.03 1561.38 1990.03 1559.38L1992.5 1561.85C1989.96 1564.66 1987.4 1566.72 1984.82 1568.01 1982.24 1569.31 1979.46 1569.96 1976.49 1569.96 1972.57 1569.96 1969.6 1568.8 1967.58 1566.47 1965.55 1564.15 1964.54 1560.77 1964.54 1556.34 1964.54 1553.45 1965.08 1550.28 1966.16 1546.82 1967.24 1543.36 1968.82 1540.32 1970.9 1537.7 1972.98 1535.08 1975.41 1533.12 1978.19 1531.82 1980.98 1530.52 1983.95 1529.88 1987.11 1529.88Z" fill-rule="evenodd"/><text fill="#000000" fill-opacity="0" font-family="Arial,Arial_MSFontService,sans-serif" font-size="40.0815" x="1964.54" y="1564.95">ğ‘</text><path d="M2009.08 1556.2C2010.16 1556.2 2011.04 1556.44 2011.72 1556.9 2012.4 1557.37 2012.97 1558.06 2013.42 1558.95 2013.87 1559.85 2014.24 1560.96 2014.53 1562.28 2014.83 1563.6 2015.14 1565.11 2015.47 1566.81L2015.85 1566.81C2017.02 1565.26 2018.04 1563.93 2018.9 1562.79 2019.76 1561.66 2020.52 1560.7 2021.2 1559.92 2021.87 1559.14 2022.48 1558.51 2023.01 1558.02 2023.55 1557.53 2024.07 1557.15 2024.58 1556.89 2025.09 1556.63 2025.61 1556.44 2026.15 1556.35 2026.69 1556.25 2027.29 1556.2 2027.95 1556.2 2028.93 1556.2 2029.82 1556.38 2030.62 1556.73L2029.15 1562.5 2026.72 1562.5C2026.66 1561.66 2026.35 1561.24 2025.78 1561.24 2025.57 1561.24 2025.33 1561.28 2025.08 1561.36 2024.83 1561.44 2024.52 1561.59 2024.17 1561.83 2023.82 1562.06 2023.42 1562.39 2022.96 1562.81 2022.5 1563.23 2021.96 1563.77 2021.33 1564.45 2020.71 1565.12 2019.99 1565.95 2019.19 1566.92 2018.39 1567.9 2017.47 1569.05 2016.44 1570.38 2016.96 1573.08 2017.42 1575.23 2017.8 1576.85 2018.18 1578.48 2018.55 1579.72 2018.9 1580.58 2019.25 1581.44 2019.6 1582 2019.95 1582.26 2020.3 1582.52 2020.71 1582.66 2021.15 1582.66 2021.49 1582.66 2021.79 1582.62 2022.08 1582.54 2022.36 1582.46 2022.65 1582.29 2022.96 1582.03 2023.26 1581.76 2023.6 1581.38 2023.97 1580.88 2024.34 1580.39 2024.78 1579.73 2025.29 1578.91L2027.48 1580.34C2026.62 1581.63 2025.86 1582.69 2025.2 1583.51 2024.53 1584.33 2023.89 1584.97 2023.26 1585.44 2022.64 1585.91 2021.99 1586.23 2021.33 1586.39 2020.67 1586.56 2019.9 1586.64 2019.04 1586.64 2018.3 1586.64 2017.64 1586.54 2017.05 1586.33 2016.47 1586.13 2015.96 1585.75 2015.53 1585.2 2015.24 1584.87 2014.96 1584.43 2014.71 1583.87 2014.46 1583.31 2014.22 1582.71 2014.01 1582.07 2013.79 1581.43 2013.6 1580.76 2013.42 1580.06 2013.24 1579.37 2013.1 1578.72 2012.98 1578.11 2012.86 1577.51 2012.77 1576.97 2012.7 1576.49 2012.63 1576.01 2012.59 1575.65 2012.57 1575.42L2012.25 1575.42C2011.08 1576.98 2010.06 1578.34 2009.19 1579.51 2008.32 1580.67 2007.53 1581.66 2006.83 1582.49 2006.12 1583.32 2005.49 1584.01 2004.92 1584.55 2004.36 1585.08 2003.8 1585.51 2003.25 1585.82 2002.71 1586.13 2002.15 1586.35 2001.57 1586.46 2000.99 1586.58 2000.35 1586.64 1999.65 1586.64 1998.63 1586.64 1997.77 1586.46 1997.04 1586.11L1998.39 1580.4 2000.88 1580.4C2000.94 1581.26 2001.26 1581.69 2001.85 1581.69 2002.06 1581.67 2002.27 1581.63 2002.48 1581.57 2002.68 1581.51 2002.92 1581.39 2003.2 1581.21 2003.47 1581.02 2003.82 1580.73 2004.24 1580.33 2004.66 1579.93 2005.19 1579.37 2005.83 1578.66 2006.48 1577.94 2007.27 1577.05 2008.21 1575.98 2009.14 1574.9 2010.27 1573.57 2011.57 1571.99 2011.22 1570.35 2010.92 1568.93 2010.65 1567.71 2010.39 1566.5 2010.14 1565.46 2009.92 1564.59 2009.69 1563.73 2009.47 1563.02 2009.26 1562.47 2009.04 1561.92 2008.83 1561.49 2008.6 1561.17 2008.38 1560.84 2008.13 1560.61 2007.87 1560.48 2007.6 1560.34 2007.3 1560.26 2006.95 1560.24 2006.61 1560.24 2006.31 1560.3 2006.02 1560.4 2005.74 1560.51 2005.45 1560.7 2005.14 1560.98 2004.84 1561.25 2004.51 1561.63 2004.15 1562.12 2003.79 1562.61 2003.37 1563.24 2002.9 1564.02L2000.65 1562.56C2001.45 1561.37 2002.17 1560.36 2002.81 1559.54 2003.46 1558.72 2004.09 1558.07 2004.72 1557.58 2005.34 1557.09 2006 1556.74 2006.7 1556.52 2007.39 1556.31 2008.19 1556.2 2009.08 1556.2Z" fill-rule="evenodd"/><text fill="#000000" fill-opacity="0" font-family="Arial,Arial_MSFontService,sans-serif" font-size="30.4395" x="1997.04" y="1582.84">ğ‘¥</text><path d="M2288.7 1221.49C2292.3 1221.49 2295.61 1221.89 2298.63 1222.71L2296.65 1231.86 2292.39 1231.86C2292.34 1229.81 2292.17 1228.33 2291.89 1227.41 2291.6 1226.49 2291.14 1225.8 2290.51 1225.34 2289.87 1224.88 2288.98 1224.65 2287.81 1224.65 2285.08 1224.65 2282.63 1225.74 2280.46 1227.91 2278.28 1230.09 2276.51 1233.17 2275.13 1237.15 2273.75 1241.14 2273.06 1244.97 2273.06 1248.64 2273.06 1251.4 2273.6 1253.45 2274.68 1254.78 2275.76 1256.12 2277.38 1256.79 2279.55 1256.79 2282 1256.79 2284.13 1256.32 2285.93 1255.39 2287.73 1254.46 2289.62 1252.99 2291.62 1250.99L2294.09 1253.47C2291.56 1256.28 2289 1258.33 2286.42 1259.63 2283.83 1260.92 2281.06 1261.57 2278.09 1261.57 2274.17 1261.57 2271.2 1260.41 2269.17 1258.09 2267.14 1255.76 2266.13 1252.39 2266.13 1247.95 2266.13 1245.06 2266.67 1241.89 2267.75 1238.43 2268.83 1234.97 2270.41 1231.93 2272.49 1229.31 2274.57 1226.69 2277.01 1224.73 2279.79 1223.43 2282.57 1222.14 2285.54 1221.49 2288.7 1221.49Z" fill-rule="evenodd"/><text fill="#000000" fill-opacity="0" font-family="Arial,Arial_MSFontService,sans-serif" font-size="40.0815" x="2266.13" y="1256.56">ğ‘</text><path d="M2309.13 1247.81C2309.83 1247.81 2310.44 1247.89 2310.94 1248.03 2311.45 1248.18 2311.91 1248.41 2312.32 1248.72 2312.73 1249.03 2313.1 1249.44 2313.42 1249.94 2313.74 1250.44 2314.07 1251.04 2314.4 1251.74 2314.58 1252.17 2314.76 1252.78 2314.96 1253.59 2315.15 1254.39 2315.36 1255.31 2315.57 1256.37 2315.79 1257.42 2316 1258.59 2316.22 1259.85 2316.43 1261.12 2316.65 1262.45 2316.86 1263.84 2317.08 1265.23 2317.28 1266.65 2317.48 1268.1 2317.67 1269.56 2317.86 1270.99 2318.03 1272.39 2319.5 1270.48 2320.82 1268.54 2321.99 1266.58 2323.16 1264.62 2324.15 1262.76 2324.96 1261.01 2325.77 1259.26 2326.39 1257.67 2326.82 1256.24 2327.25 1254.8 2327.46 1253.65 2327.44 1252.79 2327.44 1251.93 2327.21 1251.32 2326.76 1250.95 2326.31 1250.58 2325.56 1250.36 2324.51 1250.3L2324.89 1248.43 2333.24 1248.43 2334.26 1250.13C2332.31 1254.95 2330.03 1259.61 2327.42 1264.09 2324.82 1268.57 2321.87 1272.92 2318.59 1277.14 2317.16 1278.84 2315.88 1280.3 2314.74 1281.53 2313.59 1282.77 2312.54 1283.82 2311.57 1284.71 2310.61 1285.6 2309.71 1286.33 2308.88 1286.9 2308.05 1287.46 2307.24 1287.92 2306.46 1288.26 2305.68 1288.6 2304.9 1288.84 2304.13 1288.99 2303.36 1289.14 2302.55 1289.23 2301.71 1289.27 2301.27 1289.27 2300.72 1289.22 2300.09 1289.12 2299.45 1289.02 2298.89 1288.9 2298.4 1288.74L2299.87 1282.33 2302.53 1282.33 2302.53 1282.5C2302.53 1283.83 2303.07 1284.49 2304.15 1284.49 2305.57 1284.49 2307.02 1283.94 2308.48 1282.84 2309.95 1281.73 2311.71 1279.97 2313.78 1277.55 2313.14 1273.84 2312.57 1270.63 2312.09 1267.93 2311.6 1265.22 2311.15 1262.92 2310.75 1261.01 2310.35 1259.11 2309.99 1257.56 2309.65 1256.37 2309.32 1255.18 2309 1254.25 2308.69 1253.59 2308.37 1252.92 2308.06 1252.47 2307.74 1252.22 2307.41 1251.98 2307.07 1251.86 2306.7 1251.86 2306.34 1251.86 2306.02 1251.9 2305.73 1251.99 2305.44 1252.08 2305.13 1252.26 2304.82 1252.53 2304.51 1252.8 2304.17 1253.19 2303.81 1253.69 2303.45 1254.19 2303 1254.84 2302.48 1255.64L2300.22 1254.17C2301.06 1252.94 2301.83 1251.92 2302.53 1251.1 2303.24 1250.27 2303.94 1249.63 2304.63 1249.15 2305.32 1248.67 2306.03 1248.33 2306.75 1248.12 2307.48 1247.92 2308.27 1247.81 2309.13 1247.81Z" fill-rule="evenodd"/><text fill="#000000" fill-opacity="0" font-family="Arial,Arial_MSFontService,sans-serif" font-size="41.4551" x="2298.4" y="1284.09">ğ‘¦</text><path d="M1307.16 1338.24C1310.03 1338.24 1312.21 1338.67 1313.71 1339.53 1315.22 1340.39 1316.45 1341.89 1317.42 1344.02 1318.39 1346.15 1319.3 1349.56 1320.16 1354.25L1320.7 1354.25C1323.35 1350.53 1325.41 1347.72 1326.87 1345.84 1328.34 1343.96 1329.7 1342.46 1330.96 1341.33 1332.21 1340.2 1333.43 1339.41 1334.61 1338.94 1335.79 1338.48 1337.19 1338.24 1338.8 1338.24 1340.59 1338.24 1342.4 1338.57 1344.22 1339.21L1341.7 1350.81 1336.86 1350.81C1336.68 1349.31 1336.02 1348.56 1334.88 1348.56 1334.38 1348.56 1333.85 1348.68 1333.29 1348.93 1332.74 1349.18 1332 1349.75 1331.09 1350.62 1330.18 1351.5 1329.04 1352.77 1327.68 1354.44 1326.32 1356.1 1324.28 1358.64 1321.56 1362.04 1322.81 1369.59 1323.84 1375.01 1324.64 1378.28 1325.45 1381.56 1326.28 1383.68 1327.14 1384.65 1327.64 1385.19 1328.25 1385.46 1328.97 1385.46 1329.86 1385.46 1330.7 1385.11 1331.47 1384.41 1332.24 1383.71 1333.23 1382.14 1334.45 1379.71L1339.33 1381.96C1337.26 1385.76 1334.9 1388.59 1332.27 1390.45 1329.64 1392.31 1326.55 1393.24 1323.01 1393.24 1320.82 1393.24 1319.08 1392.97 1317.77 1392.41 1316.46 1391.86 1315.35 1390.93 1314.44 1389.64 1313.53 1388.36 1312.72 1386.54 1312.02 1384.19 1311.32 1381.85 1310.67 1378.78 1310.06 1374.98L1309.52 1374.98C1306.48 1379.35 1304.05 1382.68 1302.22 1384.97 1300.39 1387.26 1298.83 1388.98 1297.52 1390.13 1296.21 1391.27 1294.96 1392.08 1293.76 1392.55 1292.56 1393.01 1291.12 1393.24 1289.44 1393.24 1288.65 1393.24 1287.69 1393.14 1286.56 1392.95 1285.44 1392.75 1284.58 1392.55 1284.01 1392.33L1286.54 1380.67 1291.37 1380.67C1291.41 1381.43 1291.59 1381.99 1291.93 1382.37 1292.27 1382.74 1292.71 1382.93 1293.25 1382.93 1293.89 1382.93 1294.49 1382.8 1295.05 1382.53 1295.6 1382.26 1296.37 1381.66 1297.36 1380.73 1298.34 1379.8 1299.59 1378.43 1301.09 1376.62 1302.6 1374.81 1305.14 1371.63 1308.72 1367.09 1307.97 1362.86 1307.26 1359.22 1306.6 1356.16 1305.94 1353.09 1305.34 1350.87 1304.8 1349.5 1304.26 1348.12 1303.75 1347.2 1303.27 1346.73 1302.78 1346.26 1302.24 1346.03 1301.63 1346.03 1300.91 1346.03 1300.29 1346.22 1299.75 1346.6 1299.21 1346.97 1298.65 1347.58 1298.06 1348.42 1297.47 1349.26 1296.83 1350.38 1296.15 1351.78L1291.26 1349.52C1293.34 1345.73 1295.68 1342.9 1298.27 1341.04 1300.87 1339.17 1303.83 1338.24 1307.16 1338.24Z" fill-rule="evenodd"/><text fill="#000000" fill-opacity="0" font-family="Arial,Arial_MSFontService,sans-serif" font-size="55" x="1284.01" y="1386.37">ğ’™</text><path d="M1169.27 1607.05C1172.03 1607.05 1174.26 1607.45 1175.96 1608.26 1177.66 1609.06 1179.01 1610.17 1180.01 1611.59 1181.01 1613 1181.82 1614.8 1182.43 1616.99 1182.93 1618.71 1183.52 1621.73 1184.2 1626.06 1185.31 1633.12 1186.26 1640.05 1187.05 1646.85 1191.02 1641.16 1194.07 1635.61 1196.21 1630.2 1198.34 1624.79 1199.4 1619.96 1199.4 1615.7 1199.4 1614.34 1199.08 1613.31 1198.43 1612.61 1197.79 1611.91 1196.66 1611.53 1195.05 1611.45L1195.8 1607.91 1210.95 1607.91 1212.83 1611.45C1212.11 1613.93 1211 1616.92 1209.5 1620.42 1207.28 1625.58 1204.29 1631.36 1200.53 1637.77 1197.13 1643.54 1193.42 1649.3 1189.41 1655.07 1184.72 1661.8 1180.64 1667.23 1177.16 1671.37 1173.69 1675.51 1170.68 1678.56 1168.14 1680.53 1166.14 1682.03 1164.22 1683.1 1162.39 1683.72 1160.57 1684.35 1158.63 1684.66 1156.59 1684.66 1153.94 1684.66 1151.44 1684.27 1149.07 1683.48L1151.76 1671.34 1157.4 1671.34C1157.43 1672.85 1157.66 1673.96 1158.07 1674.67 1158.48 1675.39 1159.23 1675.75 1160.3 1675.75 1161.16 1675.75 1161.96 1675.59 1162.72 1675.29 1163.47 1674.99 1164.42 1674.39 1165.56 1673.49 1166.71 1672.6 1168.15 1671.14 1169.89 1669.11 1171.62 1667.09 1173.58 1664.65 1175.77 1661.78 1175.05 1657.41 1174.13 1652.27 1173 1646.34 1171.87 1640.41 1170.77 1635.02 1169.7 1630.17 1168.62 1625.32 1167.84 1622.04 1167.34 1620.32 1166.83 1618.6 1166.35 1617.37 1165.89 1616.64 1165.42 1615.9 1164.99 1615.42 1164.6 1615.19 1164.2 1614.95 1163.79 1614.84 1163.36 1614.84 1162.47 1614.84 1161.64 1615.21 1160.89 1615.94 1160.14 1616.67 1159.15 1618.22 1157.94 1620.59L1153.05 1618.33C1155.13 1614.57 1157.49 1611.75 1160.14 1609.87 1162.79 1607.99 1165.83 1607.05 1169.27 1607.05Z" fill-rule="evenodd"/><text fill="#000000" fill-opacity="0" font-family="Arial,Arial_MSFontService,sans-serif" font-size="77.6123" x="1149.07" y="1674.96">ğ’š</text><path d="M2172.86 1430.44 2173.96 1431.54 2175.06 1431.54 2181.65 1429.34 2187.14 1423.86 2191.53 1416.17 2192.63 1407.39 2192.63 1311.91 2193.73 1303.13 2197.02 1295.45 2200.31 1292.16 2206.9 1289.96 2208 1288.86 2208 1287.77 2206.9 1286.67 2200.62 1284.57 2197.02 1280.08 2193.73 1272.4 2193.61 1272.52 2192.63 1264.72 2192.63 1170.33 2191.53 1161.55 2191.53 1160.46 2187.14 1152.77 2181.65 1147.29 2175.06 1145.09 2173.96 1145.09 2172.86 1146.19 2172.86 1147.29 2173.96 1148.38 2180.55 1150.58 2182.75 1152.77 2183.84 1153.87 2184.48 1154.97 2187.61 1160.46 2188.24 1161.55 2188.36 1161.43 2189.33 1169.24 2189.33 1263.62 2190.43 1272.4 2190.43 1273.5 2193.73 1281.18 2196.36 1284.47 2198.12 1286.67 2199.22 1287.77 2200.86 1288.32 2199.22 1288.86 2193.73 1294.35 2190.43 1302.03 2189.33 1310.81 2189.33 1406.3 2188.24 1415.08 2184.48 1421.66 2183.84 1422.76 2180.55 1426.05 2173.96 1428.25 2172.86 1429.34 2172.86 1430.44Z" fill-rule="evenodd"/><path d="M1992.79 1491.9 1993.89 1493 1994.98 1493 1996.08 1491.9 1992.79 1491.9Z" fill-rule="evenodd"/><path d="M1859.87 1473.36 1865.42 1476.54 1866.52 1476.54 1876.4 1477.63 1970.83 1477.63 1978.64 1478.61 1978.51 1478.73 1986.2 1482.02 1990.32 1485.32 1990.69 1485.61 1990.96 1486.41 1992.79 1491.9 1992.79 1490.8 1993.89 1490.8 1996.08 1490.8 1996.08 1491.9 1998.28 1485.32 2001.57 1482.02 2009.26 1478.73 2018.04 1477.63 2112.47 1477.63 2121.26 1476.54 2128.94 1472.15 2130.04 1471.05 2135.53 1466.66 2137.73 1460.07 2137.73 1458.98 2136.63 1457.88 2135.53 1457.88 2134.43 1458.98 2132.24 1465.56 2127.93 1469.01 2127.84 1468.85 2124 1471.05 2120.16 1473.24 2111.37 1474.34 2016.94 1474.34 2008.16 1475.44 2000.47 1478.73 1999.38 1479.83 1994.98 1484.22 1994.44 1485.87 1993.89 1484.22 1992.79 1483.12 1987.3 1478.73 1979.61 1475.44 1978.51 1475.44 1969.73 1474.34 1875.3 1474.34 1866.52 1473.36 1865.54 1473.36 1859.87 1473.36Z" fill-rule="evenodd"/><path d="M1850.05 1460.07 1852.24 1466.66 1856.63 1471.05 1857.73 1472.15 1859.65 1473.24 1865.42 1473.24 1866.52 1473.24 1858.83 1468.85 1855.54 1465.56 1853.34 1458.98 1852.24 1457.88 1851.14 1457.88 1850.05 1458.98 1850.05 1460.07Z" fill-rule="evenodd"/><path d="M0 0 338.273 0.000360892" stroke="#000000" stroke-width="3.4375" stroke-miterlimit="8" fill="none" fill-rule="evenodd" transform="matrix(-1 0 0 1 2154.77 1169.5)"/><path d="M0 0 337.746 0.000360892" stroke="#000000" stroke-width="3.4375" stroke-miterlimit="8" fill="none" fill-rule="evenodd" transform="matrix(-1 0 0 1 2154.25 1205.5)"/><path d="M0 0 338.273 0.000360892" stroke="#000000" stroke-width="3.4375" stroke-miterlimit="8" fill="none" fill-rule="evenodd" transform="matrix(-1 0 0 1 2154.77 1240.5)"/><path d="M0 0 337.746 0.000360892" stroke="#000000" stroke-width="3.4375" stroke-miterlimit="8" fill="none" fill-rule="evenodd" transform="matrix(-1 0 0 1 2154.25 1276.5)"/><path d="M0 0 338.8 0.000360892" stroke="#000000" stroke-width="3.4375" stroke-miterlimit="8" fill="none" fill-rule="evenodd" transform="matrix(-1 0 0 1 2154.3 1311.5)"/><path d="M0 0 338.273 0.000360892" stroke="#000000" stroke-width="3.4375" stroke-miterlimit="8" fill="none" fill-rule="evenodd" transform="matrix(-1 0 0 1 2154.77 1346.5)"/><path d="M0 0 338.8 0.000360892" stroke="#000000" stroke-width="3.4375" stroke-miterlimit="8" fill="none" fill-rule="evenodd" transform="matrix(-1 0 0 1 2154.3 1381.5)"/><path d="M0 0 338.273 0.000360892" stroke="#000000" stroke-width="3.4375" stroke-miterlimit="8" fill="none" fill-rule="evenodd" transform="matrix(-1 0 0 1 2154.77 1417.5)"/><path d="M0 0 314.197 0.000360892" stroke="#000000" stroke-width="3.4375" stroke-miterlimit="8" fill="none" fill-rule="evenodd" transform="matrix(1.83697e-16 1 1 -1.83697e-16 1858.5 1133.5)"/><path d="M0 0 313.708 0.000360892" stroke="#000000" stroke-width="3.4375" stroke-miterlimit="8" fill="none" fill-rule="evenodd" transform="matrix(1.83697e-16 1 1 -1.83697e-16 1896.5 1133.5)"/><path d="M0 0 314.197 0.000360892" stroke="#000000" stroke-width="3.4375" stroke-miterlimit="8" fill="none" fill-rule="evenodd" transform="matrix(1.83697e-16 1 1 -1.83697e-16 1932.5 1133.5)"/><path d="M0 0 313.708 0.000360892" stroke="#000000" stroke-width="3.4375" stroke-miterlimit="8" fill="none" fill-rule="evenodd" transform="matrix(1.83697e-16 1 1 -1.83697e-16 1970.5 1133.5)"/><path d="M0 0 314.687 0.000360892" stroke="#000000" stroke-width="3.4375" stroke-miterlimit="8" fill="none" fill-rule="evenodd" transform="matrix(1.83697e-16 1 1 -1.83697e-16 2007.5 1133.5)"/><path d="M0 0 314.197 0.000360892" stroke="#000000" stroke-width="3.4375" stroke-miterlimit="8" fill="none" fill-rule="evenodd" transform="matrix(1.83697e-16 1 1 -1.83697e-16 2044.5 1133.5)"/><path d="M0 0 314.687 0.000360892" stroke="#000000" stroke-width="3.4375" stroke-miterlimit="8" fill="none" fill-rule="evenodd" transform="matrix(1.83697e-16 1 1 -1.83697e-16 2081.5 1133.5)"/><path d="M0 0 314.197 0.000360892" stroke="#000000" stroke-width="3.4375" stroke-miterlimit="8" fill="none" fill-rule="evenodd" transform="matrix(1.83697e-16 1 1 -1.83697e-16 2118.5 1133.5)"/></g></svg>