<svg width="3785" height="1787" xmlns="http://www.w3.org/2000/svg" xmlns:xlink="http://www.w3.org/1999/xlink" xml:space="preserve" overflow="hidden"><defs><clipPath id="clip0"><path d="M1628.07 1583.5 1808.86 1763.8 1731.24 1841.64 1550.44 1661.34Z" fill-rule="evenodd" clip-rule="evenodd"/></clipPath><clipPath id="clip1"><path d="M1628.07 1583.5 1808.86 1763.81 1731.24 1841.64 1550.44 1661.34Z" fill-rule="evenodd" clip-rule="evenodd"/></clipPath><clipPath id="clip2"><path d="M1628.07 1583.5 1808.86 1763.81 1731.24 1841.64 1550.44 1661.34Z" fill-rule="evenodd" clip-rule="evenodd"/></clipPath></defs><g transform="translate(-288 -557)"><path d="M2967.5 2001C2967.5 1899.1 3136.74 1816.5 3345.5 1816.5 3554.26 1816.5 3723.5 1899.1 3723.5 2001 3723.5 2102.9 3554.26 2185.5 3345.5 2185.5 3136.74 2185.5 2967.5 2102.9 2967.5 2001Z" stroke="#000000" stroke-width="6.875" stroke-miterlimit="8" fill="#0070C0" fill-rule="evenodd"/><path d="M3170.73 2163.56C2987.4 2114.64 2919.27 2001.76 3018.55 1911.43 3042.01 1890.08 3073.72 1871.21 3111.9 1855.86L3350.5 2000Z" fill="#92D050" fill-rule="evenodd"/><path d="M577.937 1527.5 577.938 1862.14 571.063 1862.14 571.062 1527.5ZM588.25 1857.55 574.5 1885.05 560.75 1857.55Z"/><path d="M315.5 1334.17C315.5 1312.81 332.812 1295.5 354.167 1295.5L795.833 1295.5C817.188 1295.5 834.5 1312.81 834.5 1334.17L834.5 1488.83C834.5 1510.19 817.188 1527.5 795.833 1527.5L354.167 1527.5C332.812 1527.5 315.5 1510.19 315.5 1488.83Z" stroke="#000000" stroke-width="6.875" stroke-miterlimit="8" fill="none" fill-rule="evenodd"/><text font-family="Aptos,Aptos_MSFontService,sans-serif" font-weight="400" font-size="83" transform="matrix(1 0 0 1 461.387 1388)">Frame</text><text font-family="Aptos,Aptos_MSFontService,sans-serif" font-weight="400" font-size="83" transform="matrix(1 0 0 1 378.933 1487)">Detections</text><path d="M315.5 729.167C315.5 707.812 332.812 690.5 354.167 690.5L795.833 690.5C817.188 690.5 834.5 707.812 834.5 729.167L834.5 883.833C834.5 905.188 817.188 922.5 795.833 922.5L354.167 922.5C332.812 922.5 315.5 905.188 315.5 883.833Z" stroke="#000000" stroke-width="6.875" stroke-miterlimit="8" fill="none" fill-rule="evenodd"/><text font-family="Aptos,Aptos_MSFontService,sans-serif" font-weight="400" font-size="83" transform="matrix(1 0 0 1 403.099 783)">Predicted </text><text font-family="Aptos,Aptos_MSFontService,sans-serif" font-weight="400" font-size="83" transform="matrix(1 0 0 1 460.069 882)">Masks</text><path d="M577.937 922.5 577.938 1271.78 571.063 1271.78 571.062 922.5ZM588.25 1267.2 574.5 1294.7 560.75 1267.2Z"/><text font-family="Times New Roman,Times New Roman_MSFontService,sans-serif" font-weight="400" font-size="83" transform="matrix(1 0 0 1 584.283 1113)">Conf &amp; Area </text><text font-family="Times New Roman,Times New Roman_MSFontService,sans-serif" font-weight="400" font-size="83" transform="matrix(1 0 0 1 655.325 1212)">Filtering</text><path d="M291.5 1923.33C291.5 1901.89 308.887 1884.5 330.334 1884.5L818.666 1884.5C840.114 1884.5 857.5 1901.89 857.5 1923.33L857.5 2078.67C857.5 2100.11 840.114 2117.5 818.666 2117.5L330.334 2117.5C308.887 2117.5 291.5 2100.11 291.5 2078.67Z" stroke="#000000" stroke-width="6.875" stroke-miterlimit="8" fill="none" fill-rule="evenodd"/><text font-family="Aptos,Aptos_MSFontService,sans-serif" font-weight="400" font-size="83" transform="matrix(1 0 0 1 430.049 2027)">3D </text><text font-family="Aptos,Aptos_MSFontService,sans-serif" font-weight="400" font-size="83" transform="matrix(1 0 0 1 547.497 2027)">Rays</text><text font-family="Times New Roman,Times New Roman_MSFontService,sans-serif" font-weight="400" font-size="83" transform="matrix(1 0 0 1 604.08 1693)">Temporal</text><text font-family="Times New Roman,Times New Roman_MSFontService,sans-serif" font-weight="400" font-size="83" transform="matrix(1 0 0 1 919.161 1693)">-</text><text font-family="Times New Roman,Times New Roman_MSFontService,sans-serif" font-weight="400" font-size="83" transform="matrix(1 0 0 1 946.661 1693)">Spatial</text><text font-family="Times New Roman,Times New Roman_MSFontService,sans-serif" font-weight="400" font-size="83" transform="matrix(1 0 0 1 750.151 1792)">Iteration </text><path d="M0.00522134-3.4375 27.5052-3.39573 27.4947 3.47927-0.00522134 3.4375ZM48.1302-3.3644 75.6301-3.32263 75.6197 3.55237 48.1197 3.51059ZM96.2551-3.2913 123.755-3.24953 123.745 3.62546 96.2447 3.58369ZM144.38-3.2182 171.88-3.17643 171.87 3.69856 144.37 3.65679ZM192.505-3.1451 220.005-3.10333 219.995 3.77166 192.495 3.72989ZM240.63-3.072 268.13-3.03023 268.12 3.84476 240.62 3.80299ZM288.755-2.9989 316.255-2.95713 316.244 3.91786 288.744 3.87609ZM336.88-2.92581 364.38-2.88403 364.369 3.99096 336.869 3.94919ZM385.005-2.85271 412.505-2.81094 412.494 4.06406 384.994 4.02229ZM433.13-2.77961 460.63-2.73784 460.619 4.13716 433.119 4.09538ZM481.255-2.70651 508.755-2.66474 508.744 4.21025 481.244 4.16848ZM529.38-2.63341 556.88-2.59164 556.869 4.28335 529.369 4.24158ZM577.505-2.56031 605.005-2.51854 604.994 4.35645 577.494 4.31468ZM606.901-12.8282 634.38 0.963583 606.859 14.6718Z" transform="matrix(1 0 0 -1 857.5 2001.46)"/><path d="M1492.5 2000C1492.5 1897.55 1595.47 1814.5 1722.5 1814.5 1849.53 1814.5 1952.5 1897.55 1952.5 2000 1952.5 2102.45 1849.53 2185.5 1722.5 2185.5 1595.47 2185.5 1492.5 2102.45 1492.5 2000Z" stroke="#000000" stroke-width="6.875" stroke-miterlimit="8" fill="#92D050" fill-rule="evenodd"/><text font-family="Aptos,Aptos_MSFontService,sans-serif" font-weight="400" font-size="83" transform="matrix(1 0 0 1 1612.61 1976)">Active</text><text font-family="Aptos,Aptos_MSFontService,sans-serif" font-weight="400" font-size="83" transform="matrix(1 0 0 1 1636.31 2075)">Rays</text><path d="M2092.5 2001C2092.5 1899.1 2261.51 1816.5 2470 1816.5 2678.49 1816.5 2847.5 1899.1 2847.5 2001 2847.5 2102.9 2678.49 2185.5 2470 2185.5 2261.51 2185.5 2092.5 2102.9 2092.5 2001Z" stroke="#000000" stroke-width="6.875" stroke-miterlimit="8" fill="#92D050" fill-rule="evenodd"/><text font-family="Aptos,Aptos_MSFontService,sans-serif" font-weight="400" font-size="83" transform="matrix(1 0 0 1 2235.64 2027)">Intersections</text><path d="M1211.5 1554.5C1254.17 1541.79 1362.25 1572.64 1415.14 1554.5 1468.04 1536.36 1540.09 1558.58 1590.28 1554.5 1640.46 1550.42 1722.98 1565.62 1850.94 1554.5 1978.9 1543.38 1986.83 1570.31 2026.07 1554.5 2065.31 1538.69 2171.45 1569.81 2258.22 1554.5 2345 1539.19 2414.22 1576.35 2518.89 1554.5 2623.55 1532.65 2676.97 1572.54 2722.53 1554.5 2768.09 1536.46 2814.4 1566.33 2840.64 1554.5 2866.89 1542.66 2933.07 1557.53 2958.76 1554.5 2984.44 1551.47 3108.37 1583.87 3219.42 1554.5 3330.46 1525.13 3367.92 1561.15 3451.57 1554.5 3535.22 1547.85 3563.7 1555.23 3598.19 1554.5 3632.69 1553.77 3663.4 1554.97 3716.31 1554.5 3769.21 1554.03 3919.9 1592.69 4062.5 1554.5 4080.99 1597.03 4054.42 1684.08 4062.5 1739.25 4070.58 1794.42 4051.52 1837.28 4062.5 1901.83 4073.48 1966.38 4053.79 2021.07 4062.5 2064.41 4071.21 2107.75 4042.04 2242.25 4062.5 2293.5 3980.28 2310.7 3917.2 2278.92 3858.86 2293.5 3800.51 2308.08 3695.49 2278.61 3626.7 2293.5 3557.92 2308.39 3449.65 2291.48 3394.55 2293.5 3339.46 2295.52 3331.79 2283.85 3276.44 2293.5 3221.08 2303.15 3207.17 2280.88 3158.33 2293.5 3109.48 2306.12 3020.86 2280.05 2926.17 2293.5 2831.49 2306.95 2820.73 2280.73 2722.53 2293.5 2624.33 2306.27 2594.99 2292.66 2547.4 2293.5 2499.8 2294.34 2395.94 2274.86 2343.75 2293.5 2291.57 2312.14 2220.07 2292.09 2140.11 2293.5 2060.15 2294.91 2024.53 2280.54 1993.49 2293.5 1962.45 2306.46 1865.87 2280.83 1789.85 2293.5 1713.82 2306.17 1649 2267.14 1529.18 2293.5 1409.37 2319.86 1320.48 2292.07 1211.5 2293.5 1187.63 2206.23 1214.1 2178.06 1211.5 2093.97 1208.9 2009.88 1234.14 1972.49 1211.5 1894.44 1188.86 1816.39 1250.71 1684.9 1211.5 1554.5Z" stroke="#00B050" stroke-width="6.875" stroke-miterlimit="8" stroke-dasharray="27.5 20.625 6.875 20.625" fill="none" fill-rule="evenodd"/><text font-family="Aptos,Aptos_MSFontService,sans-serif" font-weight="400" font-size="83" transform="matrix(1 0 0 1 1247.66 2271)">Dynamic Pool</text><path d="M1952.52 1997.06 2069.19 1997.87 2069.15 2004.74 1952.48 2003.94ZM2064.68 1987.52 2092.08 2001.46 2064.49 2015.02Z"/><path d="M2847.5 1997.06 2944.89 1997.06 2944.89 2003.94 2847.5 2003.94ZM2940.31 1986.75 2967.81 2000.5 2940.31 2014.25Z"/><text fill="#FF0000" font-family="Times New Roman,Times New Roman_MSFontService,sans-serif" font-weight="400" font-size="73" transform="matrix(1 0 0 1 2524.83 1708)">Candidates </text><text fill="#FF0000" font-family="Times New Roman,Times New Roman_MSFontService,sans-serif" font-weight="400" font-size="73" transform="matrix(1 0 0 1 2441.19 1796)">no longer update</text><text fill="#FF0000" font-family="Times New Roman,Times New Roman_MSFontService,sans-serif" font-weight="400" font-size="73" transform="matrix(1 0 0 1 1679.92 1641)">Drop</text><path d="M4002.5 2065.81C4002.5 2020.81 3916.43 1981.51 3793.25 1970.26L3793.25 2005.13 3723.5 1932.25 3793.25 1865.63 3793.25 1900.51C3916.43 1911.76 4002.5 1951.06 4002.5 1996.06L4002.5 2065.81C4002.5 2120.32 3877.59 2164.5 3723.5 2164.5L3723.5 2094.75C3839.55 2094.75 3943.49 2069.34 3984.5 2030.94" stroke="#196B24" stroke-width="3.4375" stroke-linejoin="round" stroke-miterlimit="10" fill="none" fill-rule="evenodd"/><text font-family="Times New Roman,Times New Roman_MSFontService,sans-serif" font-weight="400" font-size="73" transform="matrix(1 0 0 1 3743.57 1962)">Cluster </text><text font-family="Times New Roman,Times New Roman_MSFontService,sans-serif" font-weight="700" font-size="73" transform="matrix(1 0 0 1 3828.93 2050)">+</text><text font-family="Times New Roman,Times New Roman_MSFontService,sans-serif" font-weight="400" font-size="73" transform="matrix(1 0 0 1 3754.54 2138)">Merge</text><g clip-path="url(#clip0)"><g clip-path="url(#clip1)"><g clip-path="url(#clip2)"><path d="M9.16083 49.2395 41.9108 21.757 41.9108 37.7884C92.1809 38.2465 100.769 89.3181 100.769 89.3181 100.769 89.3181 82.104 62.1791 41.9108 61.8356L41.9108 76.722 9.16083 49.2395Z" stroke="#FF0000" stroke-width="4.58042" fill="#E8E8E8" transform="matrix(1.64466 1.64015 -0.706135 0.708077 1628.07 1583.5)"/></g></g></g><text font-family="Aptos,Aptos_MSFontService,sans-serif" font-weight="400" font-size="83" transform="matrix(1 0 0 1 3144.43 2025)">Candidates</text><path d="M3342.65 1816.96 3342.39 1814.98 3342.6 1815.8 3341.81 1813.82 3342.14 1814.44 3340.82 1812.47 3341.16 1812.9 3339.34 1810.93 3339.65 1811.22 3337.32 1809.25 3337.58 1809.45 3334.76 1807.48 3334.98 1807.62 3331.68 1805.66 3331.85 1805.76 3328.08 1803.81 3328.22 1803.88 3323.98 1801.93 3324.1 1801.99 3319.4 1800.05 3319.51 1800.09 3314.35 1798.17 3314.44 1798.2 3308.84 1796.29 3308.92 1796.31 3302.89 1794.41 3302.96 1794.43 3296.5 1792.54 3296.56 1792.56 3289.68 1790.68 3289.74 1790.69 3282.45 1788.83 3282.5 1788.84 3274.81 1786.99 3274.85 1787 3266.77 1785.17 3266.81 1785.18 3258.35 1783.37 3258.38 1783.38 3249.54 1781.58 3249.59 1781.59 3230.82 1778.06 3230.87 1778.07 3210.69 1774.62 3210.74 1774.63 3189.22 1771.28 3189.27 1771.29 3166.48 1768.03 3166.52 1768.04 3142.53 1764.89 3142.56 1764.9 3117.44 1761.87 3117.47 1761.87 3091.27 1758.97 3091.3 1758.97 3064.1 1756.2 3064.13 1756.2 3035.99 1753.57 3036.02 1753.57 3007.01 1751.08 3007.04 1751.08 2977.23 1748.75 2977.25 1748.75 2946.71 1746.58 2946.73 1746.58 2915.52 1744.58 2915.55 1744.58 2883.73 1742.76 2883.75 1742.76 2851.41 1741.12 2851.43 1741.13 2818.61 1739.68 2818.63 1739.68 2785.42 1738.44 2785.44 1738.44 2751.89 1737.41 2751.92 1737.41 2684.08 1736 2684.13 1736 2615.75 1735.51 2615.8 1735.51 2581.58 1735.71 2581.62 1735.71 2547.46 1736.3 2547.5 1736.3 2513.48 1737.26 2513.52 1737.26 2479.7 1738.58 2479.74 1738.58 2446.18 1740.26 2446.22 1740.26 2413 1742.28 2413.04 1742.27 2380.22 1744.62 2380.26 1744.61 2347.91 1747.27 2347.95 1747.27 2316.13 1750.22 2316.17 1750.22 2284.96 1753.46 2285 1753.46 2254.45 1756.98 2254.49 1756.98 2224.69 1760.76 2224.73 1760.75 2195.72 1764.79 2195.76 1764.78 2167.63 1769.06 2167.67 1769.05 2140.47 1773.55 2140.52 1773.54 2114.32 1778.25 2114.37 1778.24 2089.24 1783.16 2089.3 1783.14 2065.31 1788.24 2065.37 1788.23 2042.58 1793.51 2042.65 1793.49 2021.13 1798.93 2021.21 1798.91 2001.03 1804.5 2001.11 1804.48 1982.33 1810.2 1982.41 1810.18 1973.57 1813.09 1973.62 1813.07 1965.15 1816.02 1965.21 1816 1957.13 1818.96 1957.19 1818.94 1949.51 1821.94 1949.58 1821.91 1942.29 1824.93 1942.36 1824.9 1935.49 1827.94 1935.57 1827.91 1929.11 1830.97 1929.2 1830.93 1923.17 1834.01 1923.27 1833.96 1917.67 1837.07 1917.79 1837 1912.63 1840.12 1912.76 1840.04 1908.06 1843.18 1908.2 1843.08 1903.95 1846.24 1904.6 1845.61 1899.94 1851.48 1894.56 1847.21 1899.49 1840.99 1904.17 1837.51 1909.01 1834.28 1914.28 1831.09 1919.99 1827.92 1926.12 1824.78 1932.66 1821.68 1939.62 1818.6 1946.98 1815.55 1954.73 1812.52 1962.87 1809.53 1971.39 1806.57 1980.29 1803.64 1999.15 1797.89 2019.41 1792.28 2041 1786.82 2063.85 1781.53 2087.9 1776.41 2113.08 1771.49 2139.33 1766.77 2166.57 1762.26 2194.75 1757.98 2223.8 1753.94 2253.65 1750.15 2284.23 1746.63 2315.48 1743.38 2347.33 1740.42 2379.72 1737.76 2412.57 1735.41 2445.82 1733.4 2479.41 1731.72 2513.27 1730.39 2547.33 1729.42 2581.52 1728.84 2615.78 1728.64 2684.2 1729.12 2752.08 1730.53 2785.66 1731.57 2818.9 1732.81 2851.74 1734.26 2884.11 1735.9 2915.95 1737.72 2947.19 1739.72 2977.75 1741.9 3007.59 1744.23 3036.62 1746.72 3064.78 1749.36 3092.01 1752.13 3118.24 1755.04 3143.4 1758.07 3167.43 1761.22 3190.26 1764.48 3211.82 1767.84 3232.06 1771.3 3250.89 1774.84 3259.77 1776.64 3268.27 1778.46 3276.39 1780.3 3284.13 1782.16 3291.46 1784.04 3298.4 1785.93 3304.92 1787.84 3311.03 1789.77 3316.71 1791.71 3321.96 1793.67 3326.78 1795.66 3331.16 1797.66 3335.1 1799.7 3338.59 1801.77 3341.65 1803.9 3344.25 1806.11 3346.4 1808.44 3348.06 1810.94 3349.14 1813.64 3349.47 1816.04ZM1911.4 1852.46 1885.5 1869.02 1887.79 1838.36Z" fill="#FF0000"/><path d="M994.5 901.438C994.5 1012.67 1128.69 1109.82 1320.75 1137.63L1320.75 1083.25 1429.5 1199.75 1320.75 1300.75 1320.75 1246.38C1128.69 1218.57 994.5 1121.42 994.5 1010.19L994.5 901.438C994.5 766.715 1189.26 657.5 1429.5 657.5L1429.5 766.25C1226.61 766.25 1050.67 844.901 1005.44 955.813" stroke="#196B24" stroke-width="3.4375" stroke-linejoin="round" stroke-miterlimit="10" fill="none" fill-rule="evenodd"/><path d="M1703.5 1337.5C1703.5 1287.79 1791.92 1247.5 1901 1247.5 2010.08 1247.5 2098.5 1287.79 2098.5 1337.5 2098.5 1387.21 2010.08 1427.5 1901 1427.5 1791.92 1427.5 1703.5 1387.21 1703.5 1337.5Z" stroke="#042433" stroke-width="6.875" stroke-miterlimit="8" fill="#156082" fill-rule="evenodd"/><path d="M1.49948-3.09321 1253.58 603.873 1250.58 610.06-1.49948 3.09321ZM1253.96 592.596 1272.71 616.964 1241.96 617.341Z" fill="#0070C0" transform="matrix(-1 0 0 1 3174.21 697.5)"/><path d="M3350.5 1337.5C3350.5 1287.79 3439.15 1247.5 3548.5 1247.5 3657.85 1247.5 3746.5 1287.79 3746.5 1337.5 3746.5 1387.21 3657.85 1427.5 3548.5 1427.5 3439.15 1427.5 3350.5 1387.21 3350.5 1337.5Z" stroke="#042433" stroke-width="6.875" stroke-miterlimit="8" fill="#156082" fill-rule="evenodd"/><g><g><g><path d="M2501.88 615.25 2454.71 615.25 2440.14 590.979 2388.86 590.979 2374.29 615.25 2327.12 615.25C2320.43 615.258 2315 620.686 2314.99 627.385L2314.99 743.885C2315 750.584 2320.43 756.013 2327.12 756.021L2501.88 756.021C2508.57 756.013 2514 750.584 2514.01 743.885L2514.01 627.385C2514 620.686 2508.57 615.258 2501.88 615.25ZM2391.6 595.833 2437.4 595.833 2449.05 615.25 2379.95 615.25ZM2501.88 620.104C2505.9 620.104 2509.16 623.364 2509.16 627.385L2509.16 743.885C2509.16 747.907 2505.9 751.167 2501.88 751.167L2327.12 751.167C2323.1 751.167 2319.84 747.907 2319.84 743.885L2319.84 627.385C2319.84 623.364 2323.1 620.104 2327.12 620.104Z"/><path d="M2334.41 656.51 2365.96 656.51 2365.96 634.667 2334.41 634.667ZM2339.26 639.521 2361.1 639.521 2361.1 651.656 2339.26 651.656Z"/><path d="M2414.5 646.802C2390.37 646.802 2370.81 666.362 2370.81 690.49 2370.81 714.617 2390.37 734.177 2414.5 734.177 2438.63 734.177 2458.19 714.617 2458.19 690.49 2458.16 666.373 2438.62 646.83 2414.5 646.802ZM2414.5 729.323C2393.05 729.323 2375.67 711.937 2375.67 690.49 2375.67 669.042 2393.05 651.656 2414.5 651.656 2435.95 651.656 2453.33 669.042 2453.33 690.49 2453.31 711.926 2435.94 729.297 2414.5 729.323Z"/><path d="M2414.5 661.365C2398.41 661.365 2385.38 674.404 2385.38 690.49 2385.38 706.575 2398.41 719.615 2414.5 719.615 2430.59 719.615 2443.62 706.575 2443.62 690.49 2443.61 674.411 2430.58 661.382 2414.5 661.365ZM2414.5 714.76C2401.1 714.76 2390.23 703.894 2390.23 690.49 2390.23 677.085 2401.1 666.219 2414.5 666.219 2427.9 666.219 2438.77 677.085 2438.77 690.49 2438.76 703.888 2427.9 714.746 2414.5 714.76Z"/></g></g></g><g><g><g><path d="M203 58 156.035 58 141.535 33.8333 90.4655 33.8333 75.9655 58 29 58C22.3299 58.008 16.9247 63.4131 16.9167 70.0833L16.9167 186.083C16.9247 192.754 22.3299 198.159 29 198.167L203 198.167C209.67 198.159 215.075 192.754 215.083 186.083L215.083 70.0833C215.075 63.4131 209.67 58.008 203 58ZM93.2012 38.6667 138.799 38.6667 150.399 58 81.6012 58ZM203 62.8333C207.004 62.8333 210.25 66.0792 210.25 70.0833L210.25 186.083C210.25 190.088 207.004 193.333 203 193.333L29 193.333C24.9958 193.333 21.75 190.088 21.75 186.083L21.75 70.0833C21.75 66.0792 24.9958 62.8333 29 62.8333Z" transform="matrix(1.00431 0 0 1 3060 558)"/><path d="M36.25 99.0833 67.6667 99.0833 67.6667 77.3333 36.25 77.3333ZM41.0833 82.1667 62.8333 82.1667 62.8333 94.25 41.0833 94.25Z" transform="matrix(1.00431 0 0 1 3060 558)"/><path d="M116 89.4167C91.9757 89.4167 72.5 108.892 72.5 132.917 72.5 156.941 91.9757 176.417 116 176.417 140.024 176.417 159.5 156.941 159.5 132.917 159.472 108.904 140.013 89.4447 116 89.4167ZM116 171.583C94.6449 171.583 77.3333 154.272 77.3333 132.917 77.3333 111.562 94.6449 94.25 116 94.25 137.355 94.25 154.667 111.562 154.667 132.917 154.641 154.261 137.344 171.558 116 171.583Z" transform="matrix(1.00431 0 0 1 3060 558)"/><path d="M116 103.917C99.9838 103.917 87 116.9 87 132.917 87 148.933 99.9838 161.917 116 161.917 132.016 161.917 145 148.933 145 132.917 144.983 116.908 132.009 103.934 116 103.917ZM116 157.083C102.653 157.083 91.8333 146.263 91.8333 132.917 91.8333 119.57 102.653 108.75 116 108.75 129.347 108.75 140.167 119.57 140.167 132.917 140.152 146.257 129.341 157.069 116 157.083Z" transform="matrix(1.00431 0 0 1 3060 558)"/></g></g></g><path d="M2416.31 694.575 3510.87 1370.1 3507.26 1375.95 2412.69 700.425ZM3512.38 1358.91 3528.56 1385.06 3497.94 1382.32Z" fill="#92D050"/><path d="M1656.86 701.784 1787.5 1314.75 1780.77 1316.18 1650.14 703.217ZM1796.63 1308.12 1788.91 1337.88 1769.73 1313.85Z" fill="#0070C0"/><path d="M3180.36 695.596 3578.19 1293.48 3572.46 1297.29 3174.64 699.404ZM3584.23 1283.95 3588.02 1314.46 3561.34 1299.19Z" fill="#92D050"/><g><g><g><path d="M203 58 156.035 58 141.535 33.8333 90.4655 33.8333 75.9655 58 29 58C22.3299 58.008 16.9247 63.4131 16.9167 70.0833L16.9167 186.083C16.9247 192.754 22.3299 198.159 29 198.167L203 198.167C209.67 198.159 215.075 192.754 215.083 186.083L215.083 70.0833C215.075 63.4131 209.67 58.008 203 58ZM93.2012 38.6667 138.799 38.6667 150.399 58 81.6012 58ZM203 62.8333C207.004 62.8333 210.25 66.0792 210.25 70.0833L210.25 186.083C210.25 190.088 207.004 193.333 203 193.333L29 193.333C24.9958 193.333 21.75 190.088 21.75 186.083L21.75 70.0833C21.75 66.0792 24.9958 62.8333 29 62.8333Z" transform="matrix(1 0 0 1.00431 3823 557)"/><path d="M36.25 99.0833 67.6667 99.0833 67.6667 77.3333 36.25 77.3333ZM41.0833 82.1667 62.8333 82.1667 62.8333 94.25 41.0833 94.25Z" transform="matrix(1 0 0 1.00431 3823 557)"/><path d="M116 89.4167C91.9757 89.4167 72.5 108.892 72.5 132.917 72.5 156.941 91.9757 176.417 116 176.417 140.024 176.417 159.5 156.941 159.5 132.917 159.472 108.904 140.013 89.4447 116 89.4167ZM116 171.583C94.6449 171.583 77.3333 154.272 77.3333 132.917 77.3333 111.562 94.6449 94.25 116 94.25 137.355 94.25 154.667 111.562 154.667 132.917 154.641 154.261 137.344 171.558 116 171.583Z" transform="matrix(1 0 0 1.00431 3823 557)"/><path d="M116 103.917C99.9838 103.917 87 116.9 87 132.917 87 148.933 99.9838 161.917 116 161.917 132.016 161.917 145 148.933 145 132.917 144.983 116.908 132.009 103.934 116 103.917ZM116 157.083C102.653 157.083 91.8333 146.263 91.8333 132.917 91.8333 119.57 102.653 108.75 116 108.75 129.347 108.75 140.167 119.57 140.167 132.917 140.152 146.257 129.341 157.069 116 157.083Z" transform="matrix(1 0 0 1.00431 3823 557)"/></g></g></g><path d="M1798.62 1250.65 1873.46 1312.5 1935.17 1284.38 1901.19 1343.07 1955.48 1423.56 1880.65 1361.71 1818.94 1389.83 1852.92 1331.14Z" stroke="#00B050" stroke-width="6.875" stroke-miterlimit="8" fill="#0070C0" fill-rule="evenodd"/><path d="M1.10206-3.25605 1951.98 657.051 1949.77 663.563-1.10206 3.25605ZM1950.94 645.814 1972.58 667.655 1942.13 671.862Z" fill="#0070C0" transform="matrix(-1 0 0 1 3939.08 697.5)"/><g><g><g><path d="M1739.88 615.25 1692.71 615.25 1678.14 590.979 1626.86 590.979 1612.29 615.25 1565.12 615.25C1558.43 615.258 1553 620.686 1552.99 627.385L1552.99 743.885C1553 750.584 1558.43 756.013 1565.12 756.021L1739.88 756.021C1746.57 756.013 1752 750.584 1752.01 743.885L1752.01 627.385C1752 620.686 1746.57 615.258 1739.88 615.25ZM1629.6 595.833 1675.4 595.833 1687.05 615.25 1617.95 615.25ZM1739.88 620.104C1743.9 620.104 1747.16 623.364 1747.16 627.385L1747.16 743.885C1747.16 747.907 1743.9 751.167 1739.88 751.167L1565.12 751.167C1561.1 751.167 1557.84 747.907 1557.84 743.885L1557.84 627.385C1557.84 623.364 1561.1 620.104 1565.12 620.104Z"/><path d="M1572.41 656.51 1603.96 656.51 1603.96 634.667 1572.41 634.667ZM1577.26 639.521 1599.1 639.521 1599.1 651.656 1577.26 651.656Z"/><path d="M1652.5 646.802C1628.37 646.802 1608.81 666.362 1608.81 690.49 1608.81 714.617 1628.37 734.177 1652.5 734.177 1676.63 734.177 1696.19 714.617 1696.19 690.49 1696.16 666.373 1676.62 646.83 1652.5 646.802ZM1652.5 729.323C1631.05 729.323 1613.67 711.937 1613.67 690.49 1613.67 669.042 1631.05 651.656 1652.5 651.656 1673.95 651.656 1691.33 669.042 1691.33 690.49 1691.31 711.926 1673.94 729.297 1652.5 729.323Z"/><path d="M1652.5 661.365C1636.41 661.365 1623.37 674.404 1623.37 690.49 1623.37 706.575 1636.41 719.615 1652.5 719.615 1668.59 719.615 1681.62 706.575 1681.62 690.49 1681.61 674.411 1668.58 661.382 1652.5 661.365ZM1652.5 714.76C1639.1 714.76 1628.23 703.894 1628.23 690.49 1628.23 677.085 1639.1 666.219 1652.5 666.219 1665.9 666.219 1676.77 677.085 1676.77 690.49 1676.76 703.888 1665.9 714.746 1652.5 714.76Z"/></g></g></g><path d="M3619.78 1317.2 3586.23 1350.5 3596.76 1381.5 3570.1 1362.49 3528.56 1385.05 3562.11 1351.76 3551.58 1320.75 3578.24 1339.76Z" stroke="#00B050" stroke-width="6.875" stroke-miterlimit="8" fill="#00B050" fill-rule="evenodd"/><path d="M2.56274-2.29102 514.14 569.958 509.014 574.54-2.56274 2.29102ZM518.774 559.669 526.851 589.335 498.272 577.997Z" fill="#0070C0" transform="matrix(-1 0 0 1 2412.35 697.5)"/><path d="M1653.59 687.24 3497.19 1304.14 3495.01 1310.66 1651.41 693.76ZM3496.13 1292.91 3517.84 1314.68 3487.4 1318.99Z" fill="#92D050"/><path d="M1413.74 989.891 1830.93 1347.95 1826.45 1353.17 1409.26 995.108ZM1834.17 1337.14 1846.08 1365.49 1816.26 1358.01Z" fill="#0070C0"/><text font-family="Aptos,Aptos_MSFontService,sans-serif" font-style="italic" font-weight="400" font-size="64" transform="matrix(1 0 0 1 3052.17 2105)">active</text><text font-family="Aptos,Aptos_MSFontService,sans-serif" font-style="italic" font-weight="400" font-size="64" transform="matrix(1 0 0 1 3327.25 2117)">confirmed</text><path d="M2216.94 872.655 2232.49 884.558 2247.41 876.606 2238.05 890.686 2248.39 907.319 2232.84 895.417 2217.92 903.368 2227.28 889.289Z" stroke="#FF0000" stroke-width="6.875" stroke-miterlimit="8" fill="#FF0000" fill-rule="evenodd"/><path d="M2551.67 974.842 2567.22 986.745 2582.14 978.793 2572.78 992.872 2583.12 1009.51 2567.57 997.603 2552.64 1005.55 2562.01 991.475Z" stroke="#FF0000" stroke-width="6.875" stroke-miterlimit="8" fill="#FF0000" fill-rule="evenodd"/><path d="M2809.29 1076.15 2824.84 1088.06 2839.76 1080.11 2830.4 1094.19 2840.74 1110.82 2825.19 1098.92 2810.27 1106.87 2819.63 1092.79Z" stroke="#FF0000" stroke-width="6.875" stroke-miterlimit="8" fill="#FF0000" fill-rule="evenodd"/><path d="M2734.88 882.207 2750.43 894.11 2765.36 886.158 2755.99 900.237 2766.33 916.871 2750.78 904.968 2735.86 912.92 2745.22 898.84Z" stroke="#FF0000" stroke-width="6.875" stroke-miterlimit="8" fill="#FF0000" fill-rule="evenodd"/><path d="M2936.89 1012.93 2952.44 1024.84 2967.36 1016.89 2958 1030.97 2968.34 1047.6 2952.79 1035.7 2937.86 1043.65 2947.23 1029.57Z" stroke="#FF0000" stroke-width="6.875" stroke-miterlimit="8" fill="#FF0000" fill-rule="evenodd"/><path d="M3300.55 893.673 3316.1 905.576 3331.02 897.624 3321.66 911.703 3332 928.337 3316.45 916.434 3301.52 924.386 3310.89 910.306Z" stroke="#FF0000" stroke-width="6.875" stroke-miterlimit="8" fill="#FF0000" fill-rule="evenodd"/></g></svg>