<svg id="Ebene_1" data-name="Ebene 1" xmlns="http://www.w3.org/2000/svg" viewBox="0 0 411.4 256.84"><defs><style>.cls-1,.cls-2{fill:none;stroke:#fff;stroke-linecap:round;stroke-linejoin:round;}.cls-1{stroke-width:3.84px;}.cls-2{stroke-width:0.96px;}</style></defs><line class="cls-1" x1="318.75" y1="51.36" x2="246.74" y2="51.36"/><line class="cls-1" x1="164.03" y1="204.98" x2="94.09" y2="204.98"/><line class="cls-1" x1="195.86" y1="102.25" x2="123.85" y2="102.25"/><line class="cls-1" x1="144.98" y1="153.61" x2="72.97" y2="153.61"/><line class="cls-1" x1="340.39" y1="102.25" x2="268.39" y2="102.25"/><line class="cls-1" x1="288.51" y1="153.61" x2="216.5" y2="153.61"/><line class="cls-1" x1="195.86" y1="102.25" x2="246.74" y2="51.36"/><line class="cls-1" x1="94.09" y1="204.5" x2="144.98" y2="153.61"/><line class="cls-1" x1="267.87" y1="102.25" x2="318.75" y2="51.36"/><line class="cls-1" x1="165.14" y1="204.98" x2="216.5" y2="153.61"/><line class="cls-1" x1="72.97" y1="153.13" x2="123.85" y2="102.25"/><line class="cls-1" x1="289.03" y1="153.61" x2="339.91" y2="102.73"/><line class="cls-1" x1="318.27" y1="32.16" x2="246.26" y2="32.16"/><line class="cls-1" x1="165.14" y1="185.77" x2="93.61" y2="185.77"/><line class="cls-1" x1="195.38" y1="83.05" x2="123.37" y2="83.05"/><line class="cls-1" x1="144.5" y1="134.41" x2="72.49" y2="134.41"/><line class="cls-1" x1="339.91" y1="83.05" x2="267.91" y2="83.05"/><line class="cls-1" x1="288.03" y1="134.41" x2="216.5" y2="134.41"/><line class="cls-1" x1="195.38" y1="83.05" x2="246.26" y2="32.16"/><line class="cls-1" x1="93.61" y1="185.29" x2="144.5" y2="134.41"/><line class="cls-1" x1="267.87" y1="82.57" x2="318.27" y2="32.16"/><line class="cls-1" x1="165.62" y1="185.29" x2="216.5" y2="134.41"/><line class="cls-1" x1="72.49" y1="133.93" x2="123.37" y2="83.05"/><line class="cls-1" x1="288.55" y1="134.41" x2="339.43" y2="83.53"/><line class="cls-1" x1="318.75" y1="69.6" x2="246.74" y2="69.6"/><line class="cls-1" x1="165.62" y1="223.22" x2="94.09" y2="223.22"/><line class="cls-1" x1="195.86" y1="120.49" x2="123.85" y2="120.49"/><line class="cls-1" x1="144.98" y1="171.85" x2="72.97" y2="171.85"/><line class="cls-1" x1="340.39" y1="120.49" x2="268.39" y2="120.49"/><line class="cls-1" x1="288.51" y1="171.85" x2="216.98" y2="171.85"/><line class="cls-1" x1="195.86" y1="120.49" x2="246.74" y2="69.6"/><line class="cls-1" x1="94.09" y1="222.74" x2="144.98" y2="171.85"/><line class="cls-1" x1="267.87" y1="120.49" x2="318.75" y2="69.6"/><line class="cls-1" x1="166.1" y1="222.74" x2="216.98" y2="171.85"/><line class="cls-1" x1="72.97" y1="171.37" x2="123.85" y2="120.49"/><line class="cls-1" x1="289.03" y1="171.85" x2="339.91" y2="120.97"/><line class="cls-2" x1="318.75" y1="51.36" x2="246.74" y2="51.36"/><line class="cls-2" x1="195.86" y1="102.25" x2="123.85" y2="102.25"/><line class="cls-2" x1="144.98" y1="153.61" x2="72.97" y2="153.61"/><line class="cls-2" x1="288.51" y1="153.61" x2="216.98" y2="153.61"/><line class="cls-2" x1="195.86" y1="102.25" x2="246.74" y2="51.36"/><line class="cls-2" x1="94.09" y1="204.5" x2="144.98" y2="153.61"/><line class="cls-2" x1="267.87" y1="102.25" x2="318.75" y2="51.36"/><line class="cls-2" x1="72.97" y1="153.13" x2="123.85" y2="102.25"/><line class="cls-2" x1="217.26" y1="118.33" x2="217.26" y2="190.34"/><line class="cls-2" x1="164.86" y1="164.89" x2="164.86" y2="236.9"/><line class="cls-2" x1="92.2" y1="164.89" x2="92.2" y2="236.9"/><line class="cls-2" x1="320.2" y1="15.6" x2="320.2" y2="87.61"/><line class="cls-2" x1="246.5" y1="15.6" x2="246.5" y2="87.61"/><line class="cls-2" x1="146.18" y1="118.33" x2="146.18" y2="190.34"/><line class="cls-2" x1="71.03" y1="118.33" x2="71.03" y2="190.34"/><line class="cls-2" x1="288.27" y1="117.81" x2="288.27" y2="189.82"/><line class="cls-2" x1="266.19" y1="66.48" x2="266.19" y2="138.49"/><line class="cls-2" x1="195.62" y1="66.48" x2="195.62" y2="138.49"/><line class="cls-2" x1="51.37" y1="102.49" x2="123.37" y2="102.49"/><line class="cls-2" x1="318.75" y1="51.36" x2="369.64" y2="0.48"/><line class="cls-2" x1="246.26" y1="51.84" x2="297.15" y2="0.96"/><line class="cls-2" x1="115.21" y1="256.34" x2="166.1" y2="205.46"/><line class="cls-2" x1="42.18" y1="256.36" x2="93.06" y2="205.48"/><line class="cls-2" x1="0.48" y1="153.61" x2="72.49" y2="153.61"/><line class="cls-2" x1="338.91" y1="102.21" x2="410.92" y2="102.21"/><line class="cls-2" x1="288.03" y1="154.09" x2="360.03" y2="154.09"/><line class="cls-2" x1="123.61" y1="66.48" x2="123.61" y2="138.49"/><line class="cls-2" x1="342.11" y1="66.96" x2="342.11" y2="138.97"/></svg>